# xmcd CD database file
#
# Track frame offsets:
#	150
#	12215
#	26012
#	39055
#	57726
#	77548
#	100538
#	115646
#	131405
#	148946
#
# Disc length: 2215 seconds
#
# Revision: 0
# Processed by: cddbd v1.5.2PL0 Copyright (c) Steve Scherf et al.
# Submitted via: CDex 1.70beta2
#
DISCID=7508a50a
DTITLE=Hickory Wind - Cdn. - OVM - ON - Walk That Walk
DYEAR=1997
DGENRE=Country
TTITLE0=Talk About Love
TTITLE1=All I'll Ever Need
TTITLE2=Bartender
TTITLE3=Lay It All Down
TTITLE4=Letting Go
TTITLE5=Not Gonna Take It Anymore
TTITLE6=Feelin' Alright
TTITLE7=Walk That Walk
TTITLE8=Doin' What I'm Doin'
TTITLE9=Country Roads
EXTD=YEAR: 1997
EXTT0=
EXTT1=
EXTT2=
EXTT3=
EXTT4=
EXTT5=
EXTT6=
EXTT7=
EXTT8=
EXTT9=
PLAYORDER=
